# xmcd
#
# Track frame offsets: 
#        150
#        33422
#        49703
#        76906
#        101127
#        118930
#        141743
#
# Disc length: 2109 seconds
#
# Revision: 1
# Processed by: cddbd v1.5.2PL0 Copyright (c) Steve Scherf et al.
# Submitted via: ExactAudioCopyFreeDBPlugin 1.0
#
DISCID=62083b07
DTITLE=Jr. Walker - Back Street Boogie
DYEAR=1979
DGENRE=Soul
TTITLE0=Back Street Boogie
TTITLE1=Girl I Wanna Marry You
TTITLE2=Wishing On A Star
TTITLE3=Hole In The Wall
TTITLE4=Don't Let Me Go Astray
TTITLE5=Tiger In My Tank
TTITLE6=Sax Attack
EXTD=
EXTT0=
EXTT1=
EXTT2=
EXTT3=
EXTT4=
EXTT5=
EXTT6=
PLAYORDER=
